<svg width="32" height="32" viewBox="0 0 32 32" fill="none" xmlns="http://www.w3.org/2000/svg">
<path d="M7.77053 9.11676C12.8375 7.48075 18.774 7.10549 21.4148 7.16315C24.0555 7.22081 25.1698 8.16118 25.9732 9.76796C27.2756 12.3728 27.0008 18.8693 24.6708 20.9518C22.3421 23.0343 12.728 23.2323 9.52405 20.9518C6.13911 18.5411 7.90758 11.9716 7.79687 7.47964C7.8633 4.966 5.13477 4.55835 5.13477 4.55835" stroke="#A3A9BA" stroke-width="1.9536" stroke-linecap="round" stroke-linejoin="round"/>
<path d="M17.5077 13.6751H21.1193" stroke="#A3A9BA" stroke-width="1.9536" stroke-linecap="round" stroke-linejoin="round"/>
<path fill-rule="evenodd" clip-rule="evenodd" d="M10.0371 26.2141C10.4278 26.2141 10.7456 26.5319 10.7456 26.9226C10.7456 27.3146 10.4278 27.6324 10.0371 27.6324C9.64506 27.6324 9.32727 27.3146 9.32727 26.9226C9.32727 26.5319 9.64506 26.2141 10.0371 26.2141Z" fill="#A3A9BA" stroke="#A3A9BA" stroke-width="1.9536" stroke-linecap="round" stroke-linejoin="round"/>
<path fill-rule="evenodd" clip-rule="evenodd" d="M23.4928 26.2141C23.8848 26.2141 24.2026 26.5319 24.2026 26.9226C24.2026 27.3146 23.8848 27.6324 23.4928 27.6324C23.1021 27.6324 22.7843 27.3146 22.7843 26.9226C22.7843 26.5319 23.1021 26.2141 23.4928 26.2141Z" fill="#A3A9BA" stroke="#A3A9BA" stroke-width="1.9536" stroke-linecap="round" stroke-linejoin="round"/>
</svg>
