<svg width="32" height="32" viewBox="0 0 32 32" fill="none" xmlns="http://www.w3.org/2000/svg">
<g id="Iconly/Curved/Category">
<g id="Category">
<path id="Stroke 1" fill-rule="evenodd" clip-rule="evenodd" d="M27.5431 8.69199C27.5431 11.334 25.4004 13.4768 22.7583 13.4768C20.1163 13.4768 17.9747 11.334 17.9747 8.69199C17.9747 6.04994 20.1163 3.90723 22.7583 3.90723C25.4004 3.90723 27.5431 6.04994 27.5431 8.69199Z" stroke="#A3A9BA" stroke-width="1.9536" stroke-linecap="round" stroke-linejoin="round"/>
<path id="Stroke 3" fill-rule="evenodd" clip-rule="evenodd" d="M13.6677 8.69199C13.6677 11.334 11.5262 13.4768 8.88296 13.4768C6.24208 13.4768 4.09937 11.334 4.09937 8.69199C4.09937 6.04994 6.24208 3.90723 8.88296 3.90723C11.5262 3.90723 13.6677 6.04994 13.6677 8.69199Z" stroke="#A3A9BA" stroke-width="1.9536" stroke-linecap="round" stroke-linejoin="round"/>
<path id="Stroke 5" fill-rule="evenodd" clip-rule="evenodd" d="M27.5431 22.482C27.5431 25.1241 25.4004 27.2656 22.7583 27.2656C20.1163 27.2656 17.9747 25.1241 17.9747 22.482C17.9747 19.84 20.1163 17.6973 22.7583 17.6973C25.4004 17.6973 27.5431 19.84 27.5431 22.482Z" stroke="#A3A9BA" stroke-width="1.9536" stroke-linecap="round" stroke-linejoin="round"/>
<path id="Stroke 7" fill-rule="evenodd" clip-rule="evenodd" d="M13.6677 22.482C13.6677 25.1241 11.5262 27.2656 8.88296 27.2656C6.24208 27.2656 4.09937 25.1241 4.09937 22.482C4.09937 19.84 6.24208 17.6973 8.88296 17.6973C11.5262 17.6973 13.6677 19.84 13.6677 22.482Z" stroke="#A3A9BA" stroke-width="1.9536" stroke-linecap="round" stroke-linejoin="round"/>
</g>
</g>
</svg>
