<svg width="32" height="32" viewBox="0 0 32 32" fill="none" xmlns="http://www.w3.org/2000/svg">
<path fill-rule="evenodd" clip-rule="evenodd" d="M2.93042 27.3503C2.93042 26.8109 3.36775 26.3735 3.90722 26.3735H27.3505C27.8899 26.3735 28.3273 26.8109 28.3273 27.3503C28.3273 27.8898 27.8899 28.3271 27.3505 28.3271H3.90722C3.36775 28.3271 2.93042 27.8898 2.93042 27.3503Z" fill="#FF7269"/>
<path fill-rule="evenodd" clip-rule="evenodd" d="M2.93042 23.4431C2.93042 22.9036 3.36775 22.4663 3.90722 22.4663H27.3505C27.8899 22.4663 28.3273 22.9036 28.3273 23.4431C28.3273 23.9826 27.8899 24.4199 27.3505 24.4199H3.90722C3.36775 24.4199 2.93042 23.9826 2.93042 23.4431Z" fill="#FF7269"/>
<path fill-rule="evenodd" clip-rule="evenodd" d="M15.6288 7.48876C10.7736 7.48876 6.83764 11.4247 6.83764 16.28V22.4664H24.4201V16.28C24.4201 11.4247 20.4841 7.48876 15.6288 7.48876ZM4.88403 16.28C4.88403 10.3458 9.69463 5.53516 15.6288 5.53516C21.5631 5.53516 26.3737 10.3458 26.3737 16.28V23.4432C26.3737 23.9827 25.9363 24.42 25.3969 24.42H5.86083C5.32136 24.42 4.88403 23.9827 4.88403 23.4432V16.28Z" fill="#FF7269"/>
<path fill-rule="evenodd" clip-rule="evenodd" d="M11.0704 15.3032C11.6099 15.3032 12.0472 15.7406 12.0472 16.28V18.8848C12.0472 19.4243 11.6099 19.8616 11.0704 19.8616C10.531 19.8616 10.0936 19.4243 10.0936 18.8848V16.28C10.0936 15.7406 10.531 15.3032 11.0704 15.3032Z" fill="#FF7269"/>
<path fill-rule="evenodd" clip-rule="evenodd" d="M12.0472 5.20953C12.0472 3.23146 13.6508 1.62793 15.6288 1.62793C17.6069 1.62793 19.2105 3.23146 19.2105 5.20953V6.51194H17.2568V5.20953C17.2568 4.31042 16.5279 3.58153 15.6288 3.58153C14.7297 3.58153 14.0008 4.31042 14.0008 5.20953V6.51194H12.0472V5.20953Z" fill="#FF7269"/>
</svg>
