<svg width="32" height="32" viewBox="0 0 32 32" fill="none" xmlns="http://www.w3.org/2000/svg">
<path d="M15.0243 23.3388H6.59448" stroke="#FF7269" stroke-width="1.9536" stroke-linecap="round" stroke-linejoin="round"/>
<path fill-rule="evenodd" clip-rule="evenodd" d="M20.3138 23.34C20.3138 25.9993 21.2006 26.8849 23.8587 26.8849C26.5168 26.8849 27.4036 25.9993 27.4036 23.34C27.4036 20.6808 26.5168 19.7952 23.8587 19.7952C21.2006 19.7952 20.3138 20.6808 20.3138 23.34Z" stroke="#FF7269" stroke-width="1.9536" stroke-linecap="round" stroke-linejoin="round"/>
<path d="M18.9746 9.67848H27.4033" stroke="#FF7269" stroke-width="1.9536" stroke-linecap="round" stroke-linejoin="round"/>
<path fill-rule="evenodd" clip-rule="evenodd" d="M13.685 9.67658C13.685 7.01851 12.7982 6.13171 10.1401 6.13171C7.48091 6.13171 6.59412 7.01851 6.59412 9.67658C6.59412 12.3358 7.48091 13.2214 10.1401 13.2214C12.7982 13.2214 13.685 12.3358 13.685 9.67658Z" stroke="#FF7269" stroke-width="1.9536" stroke-linecap="round" stroke-linejoin="round"/>
</svg>
