<svg width="14" height="16" viewBox="0 0 14 16" fill="none" xmlns="http://www.w3.org/2000/svg">
<path fill-rule="evenodd" clip-rule="evenodd" d="M7.47785 3.79014C4.4583 3.79014 2.01047 6.23796 2.01047 9.25751C2.01047 12.2771 4.4583 14.7249 7.47785 14.7249C10.4974 14.7249 12.9452 12.2771 12.9452 9.25751C12.9452 6.23796 10.4974 3.79014 7.47785 3.79014ZM0.952271 9.25751C0.952271 5.65353 3.87387 2.73193 7.47785 2.73193C11.0818 2.73193 14.0034 5.65353 14.0034 9.25751C14.0034 12.8615 11.0818 15.7831 7.47785 15.7831C3.87387 15.7831 0.952271 12.8615 0.952271 9.25751Z" fill="#686F82"/>
<path fill-rule="evenodd" clip-rule="evenodd" d="M4.83228 1.14458C4.83228 0.852365 5.06916 0.615479 5.36138 0.615479H9.59418C9.8864 0.615479 10.1233 0.852365 10.1233 1.14458C10.1233 1.43679 9.8864 1.67368 9.59418 1.67368H5.36138C5.06916 1.67368 4.83228 1.43679 4.83228 1.14458Z" fill="#686F82"/>
<path fill-rule="evenodd" clip-rule="evenodd" d="M7.47783 5.90649C7.77005 5.90649 8.00693 6.14338 8.00693 6.43559V9.25747C8.00693 9.54968 7.77005 9.78657 7.47783 9.78657C7.18562 9.78657 6.94873 9.54968 6.94873 9.25747V6.43559C6.94873 6.14338 7.18562 5.90649 7.47783 5.90649Z" fill="#686F82"/>
<path fill-rule="evenodd" clip-rule="evenodd" d="M6.94873 9.25762C6.94873 8.9654 7.18562 8.72852 7.47783 8.72852H10.2997C10.5919 8.72852 10.8288 8.9654 10.8288 9.25762C10.8288 9.54983 10.5919 9.78672 10.2997 9.78672H7.47783C7.18562 9.78672 6.94873 9.54983 6.94873 9.25762Z" fill="#686F82"/>
<path fill-rule="evenodd" clip-rule="evenodd" d="M7.47783 0.615479C7.77005 0.615479 8.00693 0.852365 8.00693 1.14458V2.55551C8.00693 2.84773 7.77005 3.08462 7.47783 3.08462C7.18562 3.08462 6.94873 2.84773 6.94873 2.55551V1.14458C6.94873 0.852365 7.18562 0.615479 7.47783 0.615479Z" fill="#686F82"/>
</svg>
