<svg width="18" height="18" viewBox="0 0 18 18" fill="none" xmlns="http://www.w3.org/2000/svg">
<path fill-rule="evenodd" clip-rule="evenodd" d="M9.01034 2.85034C7.5739 2.85034 7.43809 5.3523 6.58291 6.23629C5.72772 7.12027 3.06903 6.10954 2.69964 7.67858C2.33103 9.24842 4.72276 9.78106 5.01765 11.1279C5.31409 12.4747 3.85283 14.367 5.10146 15.3088C6.3501 16.2497 7.69419 14.12 9.01034 14.12C10.3265 14.12 11.6706 16.2497 12.9192 15.3088C14.1678 14.367 12.7074 12.4747 13.003 11.1279C13.2987 9.78106 15.6896 9.24842 15.321 7.67858C14.9524 6.10954 12.293 7.12027 11.4385 6.23629C10.5834 5.3523 10.4468 2.85034 9.01034 2.85034Z" stroke="#686F82" stroke-width="1.3024" stroke-linecap="round" stroke-linejoin="round"/>
</svg>
