<svg width="17" height="25" viewBox="0 0 17 25" fill="none" xmlns="http://www.w3.org/2000/svg">
<path d="M14.5804 7.30637C14.5044 7.16834 14.3908 7.05466 14.2528 6.97851C14.1148 6.90235 13.9581 6.86683 13.8007 6.87604C13.643 6.88744 13.4919 6.94431 13.3658 7.03978C13.2397 7.13524 13.144 7.26521 13.0903 7.41395C12.9845 7.84912 12.7133 8.22593 12.3342 8.46439C11.9552 8.70284 11.4981 8.78417 11.06 8.6911C10.5605 8.62265 10.0978 8.39072 9.74395 8.03153C9.39015 7.67234 9.16524 7.2061 9.10435 6.70562V1.72379C9.10441 1.56848 9.06024 1.41636 8.977 1.28524C8.89377 1.15411 8.77491 1.0494 8.63433 0.983364C8.49376 0.917325 8.33729 0.892685 8.18322 0.912329C8.02915 0.931972 7.88387 0.995085 7.76436 1.09428C3.98968 4.43797 1.54734 9.0307 0.885503 14.0297C0.678818 15.3835 0.763774 16.7658 1.13468 18.084C1.50558 19.4023 2.15388 20.6261 3.03614 21.6734C4.54698 23.3411 6.65053 24.3512 8.89668 24.4876C12.2488 24.4876 16.1707 22.3178 16.8354 18.2979C17.6822 13.1819 14.7072 7.5439 14.5804 7.30637ZM15.2206 18.0316C14.7029 21.1621 11.5766 22.8515 8.89668 22.8515C7.11307 22.7184 5.4492 21.9036 4.25039 20.5763C3.51836 19.7007 2.98414 18.6772 2.68429 17.576C2.38445 16.4748 2.32605 15.3218 2.51309 14.1959C3.02868 10.2619 4.76123 6.58754 7.46831 3.6869V6.70562C7.53019 7.59149 7.89133 8.43003 8.49249 9.08364C9.09365 9.73725 9.89912 10.1671 10.7767 10.3027C11.308 10.4125 11.8583 10.3879 12.3777 10.2311C12.897 10.0743 13.369 9.79025 13.7507 9.40477C14.54 11.2816 15.75 14.8393 15.2206 18.0316V18.0316Z" fill="#686F82"/>
</svg>
